<?xml version="1.0" encoding="UTF-8"?>
<svg id="Layer_1" xmlns="http://www.w3.org/2000/svg" version="1.1" viewBox="0 0 742 556">
  <!-- Generator: Adobe Illustrator 30.2.1, SVG Export Plug-In . SVG Version: 2.1.1 Build 1)  -->
  <defs>
    <style>
      .st0 {
        fill: #fff;
      }
    </style>
  </defs>
  <path class="st0" d="M-.28,556.11V.11h742v556H-.28ZM675.51,49.47c4.24-6.74,7.21-12.85,9.96-19.87,1.32-3.35-1.94-7.2-4.36-8.48s-7.54-1.61-9.12.96c-4.09,6.67-7.52,12.8-10.44,20.02-1.18,2.93,2.17,6.63,4.29,7.92s8.05,2.01,9.66-.56ZM346.61,45.17c5.15,0,7.7,3.86,7.7,7.78l-.04,62.67c5.32.9,9.64,1.06,14.85.15l.24-60.97c.04-9.62-5.48-23.24-17.34-23.23l-152.91.06c-7.55,0-16.3,9.44-16.32,16.24l-.28,71.95,14.74-.2-.05-67.97c0-3.36,2.71-6.46,6.39-6.46l143.04-.02ZM660.97,210.42c17.86-17.48,28.48-38.99,31-63.47,2.8-27.17-5.13-52.3-21.35-73.49-33.13-43.28-93.56-53.98-139.2-23.91-29.98,19.75-47.6,53.03-46.45,89.29.4,12.63,2.12,24.42,6.93,35.92,7.83,18.71,20.07,33.81,36.4,45.51,40.71,29.16,96.54,25.5,132.66-9.84ZM77.95,238.23c27.01-27.61,40.29-64.96,38.92-103.27-1.33-37.15-18.67-72.11-45.21-96.77-3.66-3.4-9.63-1.39-11.94,1.29-3.37,3.91-1.87,8.25,1.7,11.91,20.34,20.86,34.68,46.99,37.86,76.47,4.06,37.7-9.76,74.67-36.45,100.82-2.13,2.08-3.36,5.05-3.13,7.34.17,1.72,2.16,4.83,3.77,5.65,5.25,2.68,10.17.95,14.47-3.44ZM700.9,69.62l19.72-13.48c3.22-2.2,1.1-7.35-.27-9.36-1.57-2.3-5.87-5.19-8.92-3.36-6.75,4.05-12.96,8.35-19.25,12.87-4.09,2.94-5.65,7.26-3.1,11.17s7.26,5.28,11.81,2.17ZM401.45,158.45c-1.89,3.85,2.14,7.22,4.41,8.19,2.11.9,6.81.93,8.91-1.3l18.76-19.91c3.41-3.62,3.53-7.48.42-11.43l-17.55-22.34c-2.23-2.83-6.62-3.57-10.16-2.59-2.01.55-4.38,2.34-4.91,3.83-.67,1.89,0,5.02.98,6.46l8.77,10.32-73.73.11-92.09-56.49c-2.82-1.73-5.83-3.14-9.01-2.54-1.96.37-5.72,2.78-5.73,5.23l-.2,53.67-79.83.08c-4.34,0-6.78,4.14-6.88,7.68-.09,3.28,3.1,7.24,7.34,7.25l79.41.13.32,49.68c.04,6.12,7.09,10.48,12.52,9.11l94.92-58.81,75.1.05c-3.88,4.89-9.14,8.21-11.79,13.63ZM48.35,202.73c35.13-35.75,33.93-92.44-4.21-126.13-4.01-3.54-9.15-3.7-12.5-.11s-2.61,8.85,1.13,12.48c32.36,31.4,31.85,76.39-1.82,105.76-1.11,5.23,1.39,8.99,5.39,10.85s8.21,1.01,12-2.86ZM711.29,100.93c8.03-1.84,15.33-4.03,22.32-7.19,3.21-1.45,3.22-6.85,2.27-9.33-1.05-2.71-4.33-6.43-7.95-5.4-7.86,2.23-14.99,4.71-22.44,7.82-2.99,1.25-3.06,6.48-2.04,8.79,1.15,2.6,3.59,6.28,7.86,5.31ZM19.3,168.88c13.58-1.59,25.02-34.56,4.61-55.1-3.11-3.13-9.12-2.56-11.87.28-3.49,3.61-1.76,8.07.97,11.37,7.46,9.02,7.79,20.95-.35,29.52-2.49,2.62-3.42,6.35-1.89,9.37,1.32,2.62,4.33,5.05,8.54,4.56ZM354.26,157.86l.03,59.89c0,4.25-3.37,6.54-7.32,6.54h-144.12c-3.55,0-5.53-4.62-5.53-7.45l-.05-62.62c-5.3-.33-9.32-.31-14.69.06l.17,66.2c.03,10.28,9.41,19.14,19.77,19.12l148.16-.3c9.82-.02,18.38-10.8,18.39-19.34l.09-62.42-14.89.31ZM637.42,412.09c11.54-8.19,15.94-20.87,15.97-34.68.04-16.11-8.62-29.14-23.29-36.41-28.5-14.11-69.2-10.61-69.6-30.14-.08-4.01,2.75-8.66,6.9-10.9,18.24-9.83,48.16-2.26,66.59,8.28l12.76-26.44-12.28-5.85c-26.69-8.8-66.27-11.98-90.45,4.59-12.29,8.42-18.82,22.07-18.04,37.07.72,13.99,8.76,25.32,21.06,31.87,27.99,14.91,72.07,9.85,72.9,30.48.56,13.89-15.2,17.23-27.01,17.49-18.41.4-35.43-3.87-51.3-14.77l-16.46,23.55c6.27,4.8,11.61,7.76,18.19,10.81,27.6,10.57,69.08,12.78,94.06-4.95ZM191.86,421.01l-37.81-50.15c22.82-5.26,36.47-24.46,36.68-47.33.17-18.72-8.18-35.62-25.24-44.12-9.66-4.82-19.92-7.15-31.01-7.14l-73.86.03.03,148.91,32.02.03.08-47.1,27.71.15,34.3,46.92,37.11-.2ZM337.12,356.84c15.89-17.43,14.97-50.85-.55-67.55-11.06-11.69-26.07-17.05-42.31-17.04l-74.23.04.06,148.95,31.68-.08.02-46.54,46.09-.54c14.87-.17,28.97-5.98,39.23-17.24ZM481.39,343.69c11.42-6.29,17.13-15.2,18.31-26.57,1.14-11.14-2.46-21.86-9.83-30.34-10.39-9.55-23.35-14.45-37.88-14.45l-83.8-.05.02,148.93,94.55-.14c9.63-.01,18.66-2.94,26.91-6.76,12.14-6.38,17.87-17.68,18.81-30.89,1.33-18.57-8.73-33.54-27.11-39.73ZM163.48,451.66c-9.56,2.07-13.5,10.68-11.38,19.36,1.91,7.8,10.11,11.9,17.98,10.51,8.63-1.53,13.42-9.82,11.75-18.16s-9.47-13.63-18.35-11.71ZM331.81,479.95c9.44,4.6,19.73.11,22.16-9.36,2.26-8.79-2.97-18.01-12.77-19.12-7.51-.85-14.46,3.55-16.48,9.89-2.32,7.29-.11,15.09,7.08,18.59ZM382.21,471.7c.32.66-.96,2.55-1.75,2.87-3.54,1.42-9.19,1.05-11.42-2.58-2.05-3.33-2.05-7.99.35-11.17,5.34-7.08,12.07.67,15.72.18,1.07-.14,3.3-2.34,2.62-3.45-3.72-6.11-12.87-7.75-19.2-4.6-6.75,3.37-9.45,11-7.44,17.83,2.26,7.68,8.93,11.73,17.27,10.82,3.4-.37,8.54-1.44,9.98-5.07,1.27-3.22.85-7.25.62-11.26l-13.51-.02-.24,4.42c-.11,2.03,5.91-.19,7,2.02ZM64.94,481.23l8.8-.28-6.95-10.28c4.13-2.68,5.84-5.69,5.63-9.84-.61-11.84-14.74-8.14-23.76-8.74l.09,29.13,6.89-.2.24-9.62c.56-.11,3.14,0,3.46.54l5.59,9.29ZM99.8,469.16l-.05-5.88-11.54.2.91-5.07,13.54-.04-.69-6.35-20.49.16-.04,29.09,21.08-.11c.33-1.91.16-5.15-.59-6.12l-13.62-.42.21-5.12,11.29-.34ZM136.85,481.18l6.88-.51-.11-28.48-8.54.33-7.51,14.38-8.08-14.61c-2.52-.15-6.46-.05-8.08.15l-.35,28.58c1.89.06,5.1-.07,6.63-.32l.31-17.45,5.37,10.47c.55,1.06,2.54,2.48,3.69,2.59.96.1,3.19-1.07,3.68-1.96l5.57-10.12.55,16.96ZM202.29,480.96l.11-22.08,8.36-.33c.4-1.36.29-4.68-.24-6.39l-23.1-.05c-.81,1.39-.7,5.76.69,6.19l7.16.72.06,22.22,6.97-.29ZM236.01,469.33l-.39-5.89-11.15-.23.06-4.79,13.59-.14-.41-6.19-20.26.06.03,29.04,20.78.04-.37-6.27-13.34-.15c-.24-1.32-.02-4.74.54-5.51l10.92.03ZM268.8,471.97c4.26.21,8.79.19,12.57-1.69s4.47-6.52,4.12-10.5c-.93-10.67-16.22-7.16-24.14-7.61v29s6.85-.09,6.85-.09l.61-9.11ZM318.45,480.57l-7.01-9.66c3.83-2.77,5.9-5.99,5.67-10.12-.18-3.32-2.82-8.28-6.9-8.37l-17.01-.35.04,29.13,6.97-.25.4-10.31c8.01,1.21,5.06,14.2,17.85,9.92ZM422.7,480.6l-7.4-10.05c4.99-2.51,6.62-6.8,5.48-11.35-1.06-4.21-4.7-7.19-9.57-7.15l-13.99.12.11,28.91,6.96-.16.49-10.28c8.05,1.38,4.14,14.14,17.93,9.96ZM448.74,481.01c1.44.31,5.3.08,7.36-.32l-10.6-28.36c-2.17-.13-5.57-.09-8.07.09l-10.45,28.19c1.84.85,6.52,1.09,7.44-.55.72-1.29,1.07-3.89,2-4.35,1.84-.9,9.52-.98,10.16.46l2.16,4.84ZM487.52,464.55l.44,16.77,6.93-.56-.23-28.58-8.75.46-7.28,14.51-7.58-14.62c-2.76-.25-6.27-.29-8.52-.17.14,3.37.32,5.25.27,7.8l-.43,20.96,6.68-.37.63-15.6,5.46,9.39c.94,1.62,5.28,2.31,6.32.51l6.06-10.5ZM529.07,481.34l6.84-.61-.18-28.43c-2.27-.38-6.23-.41-8.15.57l-7.25,14.06-7.86-14.35c-2.17-.45-5.58-.47-8.49-.23v28.08c1.35.91,5.48.99,6.53.11l.5-16.52,5.76,10.41c.63,1.13,3.46,2.25,4.48,1.74.85-.42,2.23-1.82,2.73-2.76l5.07-9.51.02,17.42ZM561.92,476.2c1.61,2.28,2.18,5.03,3.62,5.09,1.54.07,4.73-.38,6-.84l-10.48-27.62c-1.67-.99-5.6-1.01-7.98-.31l-10.36,28.46c2.97.24,6.19.63,6.94-.33s1.38-2.58,2.4-4.66c1.79-1.21,8.39-1.82,9.85.21ZM598.51,465.95c2.16-2.87,3.02-6.22,1.56-9.25-.95-1.97-4.34-4.51-6.88-4.51h-15.32s.11,29,.11,29h16.06c3.28-.01,6.68-3.21,7.42-5.86.98-3.5-.52-6.69-2.97-9.39ZM628.13,475.02l-11.43-.36.14-22.21c-2.23-.45-5.74-.35-7.04.49l-.09,28.33,19.25-.11c-.21-2.23-.55-5.04-.81-6.14ZM653.67,469.29v-5.91s-8.12.1-8.12.1c-1.5.02-3.37-1.17-3.37-2.7s1.83-2.6,3.39-2.58l11.16.17-.45-6.28-20.51.06.08,29.08,20.97-.04-.48-6.19-13.26-.3c-1.37-.3-.9-5.14.52-5.18l10.07-.25ZM156.39,517.05c-.14-2.36,2.03-6.51.68-8.41-1.03-1.45-4.13-4.02-5.93-4.05l-17.78-.28-.06,28.7h16.25c4.42.01,7.74-2.35,9.02-5.57,1.61-4.03-2-7.2-2.18-10.39ZM173.75,532.37l-.04-27.88-7.02-.11.08,28.49c2.39.09,5.39-.05,6.98-.51ZM191.13,532.81c5.85,1.57,11.53,1.05,15.63-2.6,3.29-2.93,5.12-7.78,4.84-13.07-.41-7.62-6.59-12.81-14.14-13.22-8-.43-14.58,4.72-15.94,11.9s1.65,14.86,9.6,16.99ZM241.57,527.87c.92-2.4.85-6.82-1.21-8.46-7.02-5.58-15.72-3.72-15.08-7.43.79-4.63,9.82-.38,11.88.42,1.01.4,3.08-1.12,3.3-2.17,1.08-5.19-10.48-8.61-17.76-4.72-2.18,1.17-4.16,4.27-4.4,6.2-1.39,11.52,16.61,8.31,16.27,13.66-.17,2.67-6.04,3.54-11.95-.37-1.04-.69-4-.62-4.43.4s-.16,3.54.63,4.34c5.88,6.01,20.08,5.2,22.77-1.86ZM273.78,504.79c-2.43-.42-6.02-.48-7.73.19l-6.29,10.19-6.12-10.2c-1.87-.95-6.27-.75-8.28-.2l10.43,18.11.05,9.96,7.5.16-.16-10.72,10.61-17.48ZM298.37,531.66c2.82-1.6,4.05-5.92,3.68-8.71-.33-2.51-3.11-5.36-6-6.28l-11.5-3.69c4.34-8.16,14.01,3.28,15.78-2.35s-9.66-9.14-17.72-5.12c-3.15,1.57-4.76,4.87-4.52,8.23.18,2.44,2.75,5.18,5.5,6.15l11.55,4.09c-4.98,9.78-12.87-3.05-16.92,1.17-1.53,1.6.63,5.73,2.64,6.55,5.52,2.26,11.78,3.21,17.5-.04ZM322.6,532.55l-.04-21.66,8.49-.22.04-6.26-23.82-.07v6.29s8.06.21,8.06.21v22.25s7.28-.56,7.28-.56ZM356.74,521.18l-.54-5.81-10.77-.03c-.34-.7-.25-3.58.06-4.75l13.47.08c.03-1.94-.03-4.76-.19-6.32l-20.68-.05-.04,28.7,21.05-.04c.84-.87.71-6.05-.76-6.1l-13.27-.48.06-4.85,11.62-.35ZM394.09,533.02l7.14-.25-.07-28.47-8.55.27-7.89,14.64-7.94-14.64-8.47.02v28.31s6.81.06,6.81.06l.25-17.87,5.66,11.13c.49.96,2.65,2.14,3.68,2.3.83.13,2.88-.95,3.36-1.88l5.95-11.49.06,17.86ZM430.45,518.36c-5.9-3.96-15.24-3.48-13.42-6.52,3.67-6.14,12.75,4.03,14.84-1.43,1.83-4.78-9.8-9.27-18.14-4.59-2.78,1.56-4.17,4.84-3.95,7.86.2,2.82,2.65,5.28,5.66,6.31l11.22,3.87c-4.38,9.59-14.32-2.88-17.11,1.2-.65.95-.02,3.96.89,4.77,5.29,4.72,13.02,5.15,19.29,1.69,4.16-2.3,5.37-10.07.74-13.18ZM478.34,526.58l-13.27-.13.06-22.02-7.01-.02v28.59s20.27-.04,20.27-.04l-.05-6.38ZM505.39,527.52l1.39,5.25,8.06.2-11.05-28.5c-2.77-.29-6.54-.18-8.76.51l-10.81,27.94,7.64-.16,2.26-5.68,11.26.43ZM543.72,517.74c-.1-2.67,1.65-6.92.53-9.11-.89-1.75-4.48-4.02-6.71-4.05l-15.72-.25.02,28.73,16.76-.22c2.91-.04,6.06-3.51,7.09-5.59,1.55-3.15-1.84-6.46-1.96-9.5Z"/>
  <path d="M481.39,343.69c18.38,6.18,28.44,21.15,27.11,39.73-.95,13.21-6.67,24.52-18.81,30.89-8.25,3.81-17.28,6.74-26.91,6.76l-94.55.14-.02-148.93,83.8.05c14.53,0,27.49,4.9,37.88,14.45,7.36,8.48,10.97,19.2,9.83,30.34-1.18,11.37-6.9,20.28-18.31,26.57ZM462.62,327.68c6.3-7.21,6.11-16.9-.09-23.64-4.49-2.69-9.96-5.21-15.47-5.23l-46.01-.16v34.78s44.81-.24,44.81-.24c5.95-.03,11.66-2.26,16.75-5.51ZM475.26,377.97c.12-6.89-3.88-12.23-10.45-15.41-4.95-1.17-10.33-2.1-15.69-2.1l-48.06.04-.07,34.9,46.13.04c12.85.01,27.87-2.19,28.14-17.46Z"/>
  <path d="M191.86,421.01l-37.11.2-34.3-46.92-27.71-.15-.08,47.1-32.02-.03-.03-148.91,73.86-.03c11.09,0,21.35,2.33,31.01,7.14,17.06,8.5,25.41,25.4,25.24,44.12-.21,22.87-13.85,42.08-36.68,47.33l37.81,50.15ZM150.48,339.82c9.02-9.18,9.26-23.02,1.06-32.53-5.07-3.84-11.26-6.61-18-6.62l-40.97-.08.07,46.15,34.88-.05c8.3-.01,16.2-1.46,22.96-6.88Z"/>
  <path d="M637.42,412.09c-24.98,17.72-66.46,15.52-94.06,4.95-6.58-3.05-11.92-6.02-18.19-10.81l16.46-23.55c15.86,10.9,32.89,15.17,51.3,14.77,11.8-.26,27.57-3.6,27.01-17.49-.83-20.64-44.91-15.57-72.9-30.48-12.3-6.55-20.33-17.88-21.06-31.87-.77-15,5.75-28.65,18.04-37.07,24.18-16.57,63.76-13.4,90.45-4.59l12.28,5.85-12.76,26.44c-18.42-10.54-48.35-18.1-66.59-8.28-4.15,2.24-6.99,6.89-6.9,10.9.4,19.53,41.1,16.03,69.6,30.14,14.68,7.27,23.33,20.3,23.29,36.41-.03,13.81-4.43,26.49-15.97,34.68Z"/>
  <path d="M337.12,356.84c-10.26,11.26-24.36,17.07-39.23,17.24l-46.09.54-.02,46.54-31.68.08-.06-148.95,74.23-.04c16.24,0,31.25,5.35,42.31,17.04,15.52,16.7,16.43,50.12.55,67.55ZM311.22,337.84c6.41-8.35,6.07-19.57.73-27.9-4.72-5.81-11.26-8.28-18.65-9.34l-41.58-.04-.05,46.95,39.41-.09c7.5-1.52,15.1-2.99,20.15-9.58Z"/>
  <path d="M660.97,210.42c-36.12,35.34-91.95,39-132.66,9.84-16.33-11.7-28.57-26.8-36.4-45.51-4.81-11.49-6.52-23.29-6.93-35.92-1.16-36.26,16.47-69.54,46.45-89.29,45.64-30.07,106.06-19.36,139.2,23.91,16.22,21.19,24.15,46.32,21.35,73.49-2.53,24.48-13.14,45.99-31,63.47ZM676.97,130.94c-3.37-45.13-39.75-80.33-83.86-82.97-24.13-1.44-45.5,6.28-62.99,22.22-20.35,18.55-31.97,44.79-29.91,72.6,3.64,49.2,46.44,84.78,94.79,81.47,47.13-3.23,85.61-44.49,81.97-93.32Z"/>
  <path d="M401.45,158.45c2.65-5.42,7.91-8.73,11.79-13.63l-75.1-.05-94.92,58.81c-5.43,1.37-12.48-2.98-12.52-9.11l-.32-49.68-79.41-.13c-4.24,0-7.44-3.96-7.34-7.25.1-3.54,2.53-7.68,6.88-7.68l79.83-.08.2-53.67c0-2.45,3.77-4.86,5.73-5.23,3.18-.6,6.18.81,9.01,2.54l92.09,56.49,73.73-.11-8.77-10.32c-.98-1.43-1.65-4.57-.98-6.46.53-1.49,2.9-3.28,4.91-3.83,3.54-.98,7.93-.24,10.16,2.59l17.55,22.34c3.11,3.96,2.99,7.81-.42,11.43l-18.76,19.91c-2.1,2.23-6.8,2.2-8.91,1.3-2.27-.97-6.3-4.34-4.41-8.19ZM320.95,137.96l-75.5-46.29.17,92.16,75.32-45.88Z"/>
  <path d="M354.26,157.86l14.89-.31-.09,62.42c-.01,8.54-8.57,19.32-18.39,19.34l-148.16.3c-10.37.02-19.75-8.84-19.77-19.12l-.17-66.2c5.37-.38,9.39-.4,14.69-.06l.05,62.62c0,2.83,1.98,7.44,5.53,7.44h144.12c3.95,0,7.32-2.28,7.32-6.53l-.03-59.89Z"/>
  <path d="M346.61,45.17l-143.04.02c-3.68,0-6.39,3.1-6.39,6.46l.05,67.97-14.74.2.28-71.95c.03-6.8,8.77-16.24,16.32-16.24l152.91-.06c11.87,0,17.38,13.61,17.34,23.23l-.24,60.97c-5.21.92-9.53.76-14.85-.15l.04-62.67c0-3.93-2.54-7.78-7.7-7.78Z"/>
  <path d="M77.95,238.23c-4.3,4.4-9.23,6.12-14.47,3.44-1.61-.82-3.6-3.94-3.77-5.65-.23-2.28,1-5.25,3.13-7.34,26.69-26.14,40.51-63.12,36.45-100.82-3.17-29.48-17.52-55.61-37.86-76.47-3.57-3.66-5.07-8-1.7-11.91,2.31-2.68,8.28-4.69,11.94-1.29,26.53,24.67,43.88,59.63,45.21,96.77,1.37,38.31-11.92,75.66-38.92,103.27Z"/>
  <path d="M48.35,202.73c-3.8,3.86-8.08,4.68-12,2.86s-6.5-5.61-5.39-10.85c33.67-29.38,34.18-74.37,1.82-105.76-3.74-3.63-4.44-8.93-1.13-12.48s8.48-3.44,12.5.11c38.14,33.69,39.33,90.38,4.21,126.13Z"/>
  <path d="M19.3,168.88c-4.21.49-7.21-1.94-8.54-4.56-1.53-3.02-.6-6.75,1.89-9.37,8.14-8.56,7.81-20.5.35-29.52-2.73-3.3-4.46-7.76-.97-11.37,2.74-2.84,8.75-3.41,11.87-.28,20.42,20.54,8.98,53.51-4.61,55.1Z"/>
  <path d="M394.09,533.02l-.06-17.86-5.95,11.49c-.48.93-2.53,2.01-3.36,1.88-1.03-.16-3.19-1.33-3.68-2.3l-5.66-11.13-.25,17.87-6.8-.06v-28.31s8.46-.02,8.46-.02l7.94,14.64,7.89-14.64,8.55-.27.07,28.47-7.14.25Z"/>
  <path d="M487.52,464.55l-6.06,10.5c-1.04,1.8-5.38,1.11-6.32-.51l-5.46-9.39-.63,15.6-6.68.37.43-20.96c.05-2.55-.14-4.43-.27-7.8,2.25-.12,5.76-.08,8.52.17l7.58,14.62,7.28-14.51,8.75-.46.23,28.58-6.93.56-.44-16.77Z"/>
  <path d="M529.07,481.34l-.02-17.42-5.07,9.51c-.5.94-1.89,2.33-2.73,2.76-1.02.51-3.86-.61-4.48-1.74l-5.76-10.41-.5,16.52c-1.04.88-5.18.8-6.54-.11v-28.08c2.92-.24,6.33-.22,8.5.23l7.86,14.35,7.25-14.06c1.92-.98,5.89-.95,8.15-.57l.18,28.43-6.84.61Z"/>
  <path d="M136.85,481.18l-.55-16.96-5.57,10.12c-.49.89-2.72,2.06-3.68,1.96-1.15-.11-3.14-1.53-3.69-2.59l-5.37-10.47-.31,17.45c-1.53.25-4.74.38-6.63.32l.35-28.58c1.62-.21,5.56-.3,8.08-.15l8.08,14.61,7.51-14.38,8.54-.33.11,28.48-6.88.51Z"/>
  <path d="M700.9,69.62c-4.55,3.11-9.27,1.72-11.81-2.17s-.99-8.23,3.1-11.17c6.29-4.52,12.5-8.82,19.25-12.87,3.05-1.83,7.35,1.07,8.92,3.36,1.37,2.01,3.49,7.16.27,9.36l-19.72,13.48Z"/>
  <path d="M156.39,517.05c.18,3.19,3.8,6.36,2.18,10.39-1.29,3.22-4.6,5.58-9.02,5.58h-16.25s.06-28.71.06-28.71l17.78.28c1.8.03,4.9,2.6,5.93,4.05,1.35,1.9-.81,6.06-.68,8.41ZM149.77,511.35c-1.75-1.25-7.15-1.85-8.35-.1-.59.86-1.38,4.76-.34,4.89l4.07.49c1.1.13,3.36-.58,4.37-1.08.84-.42,1.03-3.64.25-4.19ZM151.31,527.14l.49-3.9c.1-.84-2.25-2.26-3.11-2.27l-7.88-.12.1,6.34,10.4-.05Z"/>
  <path d="M598.51,465.95c2.44,2.69,3.95,5.89,2.97,9.39-.74,2.65-4.14,5.85-7.42,5.85h-16.06s-.11-29-.11-29h15.32c2.54,0,5.93,2.55,6.88,4.52,1.46,3.03.6,6.37-1.56,9.25ZM592,458.01c-1.77-.44-5.74-1.07-6.31.27-.49,1.16-1.04,5.24.14,5.28l4.67.17c.99.04,3.16-1.09,3.6-1.98s-.99-3.47-2.09-3.75ZM595.15,475.04c.32-1.94.6-4.95-.38-5.58-1.88-1.23-6.04-1.25-8.74-1.04l-.51,6.99,9.63-.36Z"/>
  <path d="M163.48,451.66c8.89-1.92,16.72,3.54,18.35,11.71s-3.13,16.64-11.75,18.16c-7.87,1.39-16.07-2.71-17.98-10.51-2.12-8.68,1.81-17.3,11.38-19.36ZM167.04,475.19c5.29-.04,8.05-4.55,8.04-8.53s-2.84-8.38-7.49-8.63c-5.45-.29-9.05,3.69-8.98,8.69.06,3.87,2.83,8.52,8.44,8.48Z"/>
  <path d="M331.81,479.95c-7.19-3.5-9.4-11.3-7.08-18.59,2.02-6.33,8.97-10.74,16.48-9.89,9.8,1.11,15.03,10.32,12.77,19.12-2.43,9.46-12.72,13.95-22.16,9.36ZM337.81,475.01c6.3.8,9.84-3.93,9.48-9.18-.3-4.36-3.57-8.36-8.89-7.87-4.31.4-7.18,4-7.34,7.83s1.74,8.58,6.75,9.22Z"/>
  <path d="M711.29,100.93c-4.27.98-6.71-2.71-7.86-5.31-1.02-2.31-.95-7.55,2.04-8.79,7.45-3.11,14.58-5.59,22.44-7.82,3.63-1.03,6.91,2.7,7.95,5.4.96,2.48.94,7.88-2.27,9.33-6.99,3.16-14.29,5.35-22.32,7.19Z"/>
  <path d="M543.72,517.74c.12,3.04,3.51,6.35,1.96,9.5-1.02,2.08-4.18,5.55-7.09,5.59l-16.76.22-.02-28.73,15.72.25c2.24.04,5.82,2.31,6.71,4.05,1.12,2.19-.63,6.44-.53,9.11ZM536.45,516.49c1.37-.12,1.99-4.83.67-5.28-2.37-.81-6.2-.98-8.16-.66l-.12,5.82c2.31.18,5.36.32,7.61.12ZM537.97,521.55c-2.59-.49-6.98-.53-9.4-.46l.14,5.81c5.46.26,7.9,1.42,10.61-1.74.55-.64-.34-3.42-1.35-3.61Z"/>
  <path d="M382.21,471.7c-1.08-2.22-7.1,0-7-2.02l.24-4.42,13.51.02c.23,4.01.64,8.04-.62,11.26-1.43,3.63-6.57,4.7-9.98,5.07-8.34.91-15.01-3.14-17.27-10.82-2.01-6.83.69-14.46,7.44-17.83,6.32-3.16,15.47-1.51,19.2,4.6.68,1.12-1.55,3.31-2.62,3.45-3.66.49-10.38-7.26-15.72-.18-2.41,3.19-2.4,7.84-.35,11.17,2.23,3.63,7.89,3.99,11.42,2.58.78-.31,2.07-2.2,1.75-2.87Z"/>
  <path d="M422.7,480.6c-13.79,4.18-9.87-8.57-17.93-9.96l-.49,10.28-6.96.16-.11-28.91,13.99-.12c4.87-.04,8.51,2.95,9.57,7.15,1.14,4.55-.49,8.84-5.48,11.35l7.4,10.05ZM412.16,465.18c1.51-.78,1.56-5.54.29-6.66s-5.19-1.39-7.08-.44c-1.56.78-1.2,5.03-.89,7.47,1.68.65,5.63.69,7.69-.37Z"/>
  <path d="M191.13,532.81c-7.95-2.13-10.96-9.82-9.6-16.99s7.94-12.33,15.94-11.9c7.55.4,13.73,5.6,14.14,13.22.28,5.29-1.55,10.15-4.84,13.07-4.11,3.65-9.79,4.17-15.63,2.6ZM193.46,510.93c-4.92,1.92-6.31,7.19-4.66,11.39s6.19,5.94,10.7,4.25c3.98-1.49,5.85-6.02,4.63-10.69-1-3.8-5.68-6.9-10.66-4.96Z"/>
  <path d="M64.94,481.23l-5.59-9.29c-.32-.53-2.9-.65-3.46-.54l-.24,9.62-6.89.2-.09-29.13c9.02.6,23.15-3.1,23.76,8.74.21,4.15-1.5,7.16-5.63,9.84l6.95,10.28-8.8.28ZM63.31,465.67c2.38-.4,3.26-5.79.94-6.93s-5-1.08-8.34-.91l-.04,8.61c3.01-.22,4.88-.34,7.45-.78Z"/>
  <path d="M318.45,480.57c-12.78,4.28-9.84-8.71-17.85-9.92l-.4,10.31-6.97.25-.04-29.13,17.01.35c4.08.08,6.72,5.05,6.9,8.37.23,4.13-1.84,7.34-5.67,10.12l7.01,9.66ZM308.76,465.17c2.25-1.09,1.7-6.14-.24-6.91-2.41-.95-5.56-.75-7.73-.18l-.26,7.87c2.68.2,5.89.36,8.23-.78Z"/>
  <path d="M675.51,49.47c-1.61,2.56-7.6,1.82-9.66.56s-5.48-4.99-4.29-7.92c2.92-7.22,6.35-13.35,10.44-20.02,1.57-2.56,6.68-2.24,9.12-.96s5.68,5.13,4.36,8.48c-2.75,7.01-5.73,13.13-9.96,19.87Z"/>
  <path d="M298.37,531.66c-5.72,3.24-11.98,2.29-17.5.04-2-.82-4.17-4.95-2.64-6.55,4.05-4.22,11.94,8.61,16.92-1.17l-11.55-4.09c-2.76-.98-5.32-3.72-5.5-6.15-.25-3.36,1.37-6.67,4.52-8.23,8.06-4.02,19.44-.37,17.72,5.12s-11.44-5.8-15.78,2.35l11.5,3.69c2.89.93,5.68,3.77,6,6.28.36,2.79-.86,7.11-3.68,8.71Z"/>
  <path d="M505.39,527.52l-11.26-.43-2.26,5.68-7.64.16,10.81-27.94c2.22-.69,5.99-.8,8.76-.51l11.05,28.5-8.06-.2-1.39-5.25ZM503.48,521.72l-4.46-9.25-3.05,9.58c2.88.05,4.71-.03,7.51-.33Z"/>
  <path d="M236.01,469.33l-10.92-.03c-.56.77-.78,4.19-.54,5.51l13.34.15.37,6.27-20.78-.04-.03-29.04,20.26-.06.41,6.19-13.59.14-.06,4.79,11.15.23.39,5.89Z"/>
  <path d="M241.57,527.87c-2.69,7.06-16.88,7.87-22.77,1.86-.78-.8-1.05-3.32-.63-4.34s3.39-1.09,4.43-.4c5.91,3.91,11.78,3.04,11.95.37.34-5.35-17.66-2.14-16.27-13.66.23-1.93,2.22-5.03,4.4-6.2,7.28-3.89,18.84-.47,17.76,4.72-.22,1.05-2.28,2.57-3.3,2.17-2.05-.8-11.08-5.05-11.88-.42-.64,3.71,8.07,1.85,15.08,7.43,2.06,1.64,2.12,6.05,1.21,8.46Z"/>
  <path d="M356.74,521.18l-11.62.35-.06,4.85,13.27.48c1.47.05,1.6,5.23.76,6.1l-21.05.04.04-28.7,20.68.05c.15,1.56.22,4.38.19,6.32l-13.47-.08c-.31,1.17-.4,4.04-.06,4.75l10.77.03.54,5.81Z"/>
  <path d="M430.45,518.36c4.63,3.11,3.42,10.88-.74,13.18-6.27,3.47-14,3.03-19.29-1.69-.91-.81-1.54-3.82-.89-4.77,2.79-4.09,12.73,8.38,17.11-1.2l-11.22-3.87c-3-1.04-5.45-3.49-5.66-6.31-.22-3.01,1.17-6.3,3.95-7.86,8.35-4.68,19.97-.18,18.14,4.59-2.09,5.45-11.17-4.71-14.84,1.43-1.81,3.03,7.53,2.56,13.42,6.52Z"/>
  <path d="M448.74,481.01l-2.16-4.84c-.64-1.43-8.32-1.36-10.16-.46-.93.46-1.27,3.06-2,4.35-.92,1.64-5.6,1.4-7.44.55l10.45-28.19c2.5-.18,5.9-.23,8.07-.09l10.6,28.36c-2.06.4-5.92.64-7.36.32ZM444.56,469.17l-3.38-9.68-3.35,9.46,6.73.21Z"/>
  <path d="M99.8,469.16l-11.29.34-.21,5.12,13.62.42c.75.97.92,4.2.59,6.12l-21.08.11.04-29.09,20.49-.16.69,6.35-13.54.04-.91,5.07,11.54-.2.05,5.88Z"/>
  <path d="M653.67,469.29l-10.07.25c-1.42.03-1.89,4.87-.52,5.18l13.26.3.48,6.19-20.97.04-.08-29.08,20.51-.06.45,6.28-11.16-.17c-1.56-.02-3.4,1.05-3.39,2.58s1.87,2.72,3.37,2.7l8.12-.1v5.91Z"/>
  <path d="M561.92,476.2c-1.46-2.03-8.07-1.42-9.85-.21-1.01,2.07-1.64,3.7-2.4,4.66s-3.97.57-6.94.33l10.36-28.46c2.38-.7,6.31-.68,7.98.31l10.48,27.62c-1.27.46-4.46.9-6,.84-1.44-.06-2.01-2.81-3.62-5.09ZM560.44,468.92l-3.1-8.96-3.61,9.06,6.71-.11Z"/>
  <path d="M268.8,471.97l-.61,9.11-6.85.09v-29c7.92.45,23.21-3.06,24.14,7.61.35,3.98-.27,8.58-4.12,10.5s-8.3,1.91-12.57,1.69ZM276.85,458.62c-2.59-1.4-5.41-1.29-8.05-1.03l.27,9.55c3.16.26,6.4-.16,8.02-1.47,1.4-1.14,1.54-6.09-.24-7.05Z"/>
  <path d="M273.78,504.79l-10.61,17.48.16,10.72-7.5-.16-.05-9.96-10.43-18.11c2.02-.54,6.41-.75,8.28.2l6.12,10.2,6.29-10.19c1.7-.67,5.3-.61,7.73-.19Z"/>
  <polygon points="322.6 532.55 315.33 533.11 315.32 510.86 307.25 510.64 307.26 504.35 331.08 504.42 331.04 510.67 322.56 510.89 322.6 532.55"/>
  <path d="M202.29,480.96l-6.97.29-.06-22.22-7.16-.72c-1.39-.43-1.5-4.81-.69-6.19l23.1.05c.53,1.71.64,5.03.24,6.39l-8.36.33-.11,22.08Z"/>
  <polygon points="478.34 526.58 478.39 532.97 458.13 533.01 458.12 504.42 465.13 504.44 465.07 526.45 478.34 526.58"/>
  <path d="M628.13,475.02c.26,1.1.6,3.91.81,6.14l-19.25.11.09-28.33c1.3-.84,4.81-.94,7.04-.49l-.14,22.21,11.43.36Z"/>
  <path d="M173.75,532.37c-1.59.46-4.59.6-6.98.51l-.08-28.49,7.02.11.04,27.88Z"/>
  <path class="st0" d="M475.26,377.97c-.27,15.27-15.29,17.47-28.14,17.46l-46.13-.04.07-34.9,48.06-.04c5.37,0,10.74.93,15.69,2.1,6.57,3.18,10.57,8.52,10.45,15.41Z"/>
  <path class="st0" d="M462.62,327.68c-5.09,3.25-10.8,5.48-16.75,5.51l-44.8.24v-34.78s46,.16,46,.16c5.5.02,10.98,2.54,15.47,5.23,6.2,6.74,6.39,16.42.09,23.64Z"/>
  <path class="st0" d="M150.48,339.82c-6.76,5.42-14.66,6.87-22.96,6.88l-34.88.05-.07-46.15,40.97.08c6.74.01,12.93,2.78,18,6.62,8.2,9.51,7.95,23.35-1.06,32.53Z"/>
  <path class="st0" d="M311.22,337.84c-5.05,6.59-12.65,8.07-20.15,9.58l-39.41.09.05-46.95,41.58.04c7.4,1.07,13.93,3.54,18.65,9.34,5.34,8.33,5.68,19.54-.73,27.9Z"/>
  <path class="st0" d="M676.97,130.94c3.65,48.83-34.84,90.09-81.97,93.32-48.35,3.32-91.15-32.27-94.79-81.47-2.06-27.81,9.56-54.05,29.91-72.6,17.49-15.94,38.86-23.67,62.99-22.22,44.11,2.64,80.49,37.84,83.86,82.97ZM656.47,161.81c9.39-24.59.34-50.32-21.96-63.63-20.95-12.51-47.96-10.78-65.76,6.55-20.48,19.94-21.19,52.6-2.73,74.1,8.15,9.5,18.62,15,30.86,17.12,25.87,4.48,50.13-9.33,59.6-34.14Z"/>
  <polygon class="st0" points="320.95 137.96 245.62 183.83 245.45 91.67 320.95 137.96"/>
  <path class="st0" d="M151.31,527.14l-10.4.05-.1-6.34,7.88.12c.86.01,3.22,1.43,3.11,2.27l-.49,3.9Z"/>
  <path class="st0" d="M149.77,511.35c.78.56.59,3.77-.25,4.19-1.01.51-3.27,1.22-4.37,1.08l-4.07-.49c-1.04-.13-.25-4.02.34-4.89,1.2-1.74,6.6-1.15,8.35.1Z"/>
  <path class="st0" d="M595.15,475.04l-9.63.36.51-6.99c2.7-.2,6.86-.18,8.74,1.04.97.64.7,3.64.38,5.58Z"/>
  <path class="st0" d="M592,458.01c1.11.27,2.53,2.86,2.09,3.75s-2.61,2.02-3.6,1.98l-4.67-.17c-1.18-.04-.63-4.13-.14-5.28.57-1.34,4.54-.71,6.31-.27Z"/>
  <path class="st0" d="M167.04,475.19c-5.61.04-8.38-4.6-8.44-8.48-.07-4.99,3.54-8.98,8.98-8.69,4.65.25,7.48,4.55,7.49,8.63s-2.75,8.49-8.04,8.53Z"/>
  <path class="st0" d="M337.81,475.01c-5.01-.64-6.92-5.28-6.75-9.22s3.03-7.43,7.34-7.83c5.32-.49,8.59,3.51,8.89,7.87.36,5.25-3.18,9.98-9.48,9.18Z"/>
  <path class="st0" d="M537.97,521.55c1.01.19,1.89,2.97,1.35,3.61-2.7,3.16-5.14,2-10.61,1.74l-.14-5.81c2.42-.07,6.81-.04,9.4.46Z"/>
  <path class="st0" d="M536.45,516.49c-2.25.19-5.31.06-7.61-.12l.12-5.82c1.96-.32,5.79-.15,8.16.66,1.32.45.7,5.16-.67,5.28Z"/>
  <path class="st0" d="M412.16,465.18c-2.06,1.06-6.01,1.01-7.69.37-.31-2.44-.67-6.68.89-7.47,1.89-.95,5.81-.68,7.08.44s1.22,5.88-.29,6.66Z"/>
  <path class="st0" d="M193.46,510.93c4.98-1.94,9.67,1.16,10.66,4.96,1.22,4.67-.65,9.2-4.63,10.69-4.51,1.69-9.13-.24-10.7-4.25s-.26-9.48,4.66-11.39Z"/>
  <path class="st0" d="M63.31,465.67c-2.56.43-4.43.56-7.45.78l.04-8.61c3.34-.18,6-.24,8.34.91s1.44,6.53-.94,6.93Z"/>
  <path class="st0" d="M308.76,465.17c-2.35,1.14-5.56.98-8.23.78l.26-7.87c2.17-.57,5.32-.77,7.73.18,1.94.77,2.5,5.82.24,6.91Z"/>
  <path class="st0" d="M503.48,521.72c-2.8.31-4.63.38-7.51.33l3.05-9.58,4.46,9.25Z"/>
  <polygon class="st0" points="444.56 469.17 437.83 468.96 441.18 459.5 444.56 469.17"/>
  <polygon class="st0" points="560.44 468.92 553.73 469.03 557.33 459.96 560.44 468.92"/>
  <path class="st0" d="M276.85,458.62c1.78.96,1.64,5.91.24,7.05-1.61,1.31-4.86,1.73-8.02,1.47l-.27-9.55c2.64-.26,5.46-.38,8.05,1.03Z"/>
  <path d="M656.47,161.81c-9.47,24.81-33.73,38.62-59.6,34.14-12.24-2.12-22.7-7.62-30.86-17.12-18.46-21.51-17.75-54.17,2.73-74.1,17.8-17.33,44.81-19.06,65.76-6.55,22.3,13.31,31.35,39.04,21.96,63.63ZM634.07,171.68c5.32-1.98,6.59-7.38,5.01-11.59s-5.87-7.54-10.89-5.9-6.8,7.16-4.79,12.41c1.21,3.15,5.77,6.9,10.67,5.08ZM609.59,183.34c4.04,1.2,7.34-.91,8.18-4.2.65-2.54-1.18-5.86-4.13-6.94-3.43-1.26-6.83.46-8.09,3.68-1.02,2.59.19,6.33,4.04,7.47Z"/>
  <path class="st0" d="M634.07,171.68c-4.9,1.82-9.46-1.93-10.67-5.08-2.02-5.25-.31-10.75,4.79-12.41s9.31,1.65,10.89,5.9.31,9.61-5.01,11.59Z"/>
  <path class="st0" d="M609.59,183.34c-3.84-1.14-5.05-4.88-4.04-7.47,1.27-3.22,4.66-4.94,8.09-3.68,2.94,1.08,4.77,4.41,4.13,6.94-.84,3.29-4.14,5.4-8.18,4.2Z"/>
</svg>